<?xml version="1.0" encoding="utf-8"?>
<!-- Generator: Adobe Illustrator 25.2.0, SVG Export Plug-In . SVG Version: 6.00 Build 0)  -->
<svg version="1.1" id="Layer_1" xmlns="http://www.w3.org/2000/svg" xmlns:xlink="http://www.w3.org/1999/xlink" x="0px" y="0px"
	 viewBox="0 0 512 512" enable-background="new 0 0 512 512" xml:space="preserve">
<path stroke="#000000" stroke-width="7" stroke-miterlimit="10" d="M256.3,247.3c33.2,0,62-11.9,85.5-35.5
	c23.5-23.6,35.4-52.4,35.4-85.7c0-33.3-11.9-62.1-35.4-85.7C318.3,16.9,289.6,5,256.3,5c-33.2,0-62,11.9-85.5,35.5
	s-35.4,52.4-35.4,85.7c0,33.3,11.9,62.1,35.4,85.7C194.3,235.4,223.1,247.3,256.3,247.3z M191.6,61.3c18-18.1,39.2-26.9,64.7-26.9
	c25.5,0,46.7,8.8,64.7,26.9c18,18.1,26.8,39.3,26.8,64.8c0,25.5-8.8,46.7-26.8,64.8c-18,18.1-39.2,26.9-64.7,26.9
	c-25.5,0-46.7-8.8-64.7-26.9c-18-18.1-26.8-39.3-26.8-64.8C164.8,100.6,173.6,79.4,191.6,61.3z"/>
<path stroke="#000000" stroke-width="7" stroke-miterlimit="10" d="M470,390.8c-0.7-9.8-2-20.5-4.1-31.8c-2-11.4-4.7-22.1-7.8-32
	c-3.2-10.2-7.7-20.2-13.1-29.8c-5.7-10-12.3-18.7-19.8-25.8c-7.8-7.5-17.4-13.5-28.4-17.9c-11-4.4-23.2-6.6-36.3-6.6
	c-5.1,0-10.1,2.1-19.7,8.4c-5.9,3.8-12.8,8.3-20.5,13.2c-6.6,4.2-15.5,8.1-26.5,11.7c-10.7,3.5-21.6,5.2-32.4,5.2
	c-10.8,0-21.7-1.8-32.4-5.2c-11-3.6-19.9-7.5-26.5-11.7c-7.6-4.9-14.5-9.3-20.5-13.2c-9.6-6.2-14.5-8.4-19.7-8.4
	c-13.1,0-25.3,2.2-36.3,6.6c-11,4.4-20.6,10.4-28.4,17.9c-7.5,7.2-14.1,15.8-19.8,25.8c-5.5,9.6-9.9,19.6-13.1,29.8
	c-3.1,9.8-5.8,20.6-7.8,32c-2,11.3-3.4,22-4.1,31.8c-0.7,9.6-1,19.6-1,29.7c0,26.3,8.3,47.5,24.8,63.2C93,499.2,114.5,507,140.6,507
	h241.8c26.1,0,47.6-7.8,63.8-23.3c16.4-15.7,24.8-36.9,24.8-63.2C471,410.4,470.7,400.4,470,390.8z M425.9,462.3
	c-10.7,10.2-25,15.2-43.5,15.2H140.6c-18.6,0-32.8-5-43.5-15.2c-10.5-10-15.6-23.7-15.6-41.8c0-9.4,0.3-18.7,0.9-27.7
	c0.6-8.8,1.8-18.4,3.7-28.6c1.8-10.1,4.1-19.6,6.9-28.2c2.6-8.2,6.2-16.4,10.7-24.2c4.2-7.5,9.1-13.9,14.5-19.1
	c5-4.8,11.4-8.8,18.9-11.8c6.9-2.7,14.7-4.3,23.2-4.5c1,0.5,2.9,1.6,5.8,3.5c6.1,3.9,13,8.5,20.7,13.4c8.7,5.5,19.9,10.6,33.3,14.9
	c13.7,4.4,27.6,6.7,41.5,6.7c13.8,0,27.8-2.2,41.5-6.7c13.4-4.3,24.6-9.3,33.3-14.9c7.9-5.1,14.7-9.4,20.7-13.4c3-1.9,4.8-3,5.8-3.5
	c8.5,0.2,16.2,1.7,23.2,4.5c7.5,3,13.9,6.9,18.9,11.8c5.4,5.2,10.3,11.6,14.5,19.1c4.5,7.8,8.1,16,10.7,24.2
	c2.7,8.6,5.1,18.1,6.9,28.2c1.8,10.3,3.1,19.9,3.7,28.6v0c0.6,8.9,0.9,18.2,0.9,27.7C441.6,438.6,436.5,452.3,425.9,462.3z"/>
</svg>
